<?xml version="1.0" encoding="utf-8"?>
<!-- Generator: Adobe Illustrator 19.2.0, SVG Export Plug-In . SVG Version: 6.00 Build 0)  -->
<svg version="1.1" id="Layer_1" xmlns="http://www.w3.org/2000/svg" xmlns:xlink="http://www.w3.org/1999/xlink" x="0px" y="0px"
	 viewBox="0 0 368 79" enable-background="new 0 0 368 79" xml:space="preserve">
<g>
	<path fill="#231F20" d="M149.8,52.6l4.6-20.1h6.4l-8,29.2h-5.4l-6.3-20l-6.2,20h-5.4l-8-29.2h6.4l4.7,19.9l6-19.9h4.9L149.8,52.6z"
		/>
	<path fill="#231F20" d="M180.9,61.6c-0.2-0.3-0.3-0.7-0.4-1.2c-0.1-0.5-0.2-1-0.3-1.5c-0.4,0.4-0.9,0.9-1.4,1.3
		c-0.5,0.4-1.1,0.7-1.8,1c-0.6,0.3-1.3,0.5-2.1,0.7c-0.7,0.2-1.5,0.3-2.4,0.3c-1.5,0-2.8-0.2-4-0.7c-1.2-0.4-2.3-1.1-3.1-1.8
		c-0.9-0.8-1.6-1.7-2-2.8c-0.5-1.1-0.7-2.2-0.7-3.5c0-1.6,0.3-2.9,0.9-4.2c0.6-1.2,1.5-2.2,2.6-3c1.1-0.8,2.5-1.4,4.2-1.8
		c1.6-0.4,3.5-0.6,5.6-0.6h4.1v-1.9c0-1.5-0.4-2.7-1.3-3.6c-0.8-0.9-2.1-1.4-3.9-1.4c-0.8,0-1.5,0.1-2.1,0.3
		c-0.6,0.2-1.2,0.5-1.6,0.8c-0.4,0.4-0.8,0.8-1,1.3c-0.2,0.5-0.4,1-0.4,1.6h-6.6c0-1.2,0.3-2.3,0.9-3.3c0.6-1.1,1.4-2,2.4-2.9
		c1-0.8,2.3-1.5,3.8-2c1.5-0.5,3.1-0.8,5-0.8c1.6,0,3.1,0.2,4.5,0.6c1.4,0.4,2.6,1.1,3.6,1.9c1,0.8,1.8,1.9,2.3,3.1
		c0.6,1.2,0.8,2.7,0.8,4.4v12.9c0,2.6,0.4,4.7,1.1,6.3v0.5H180.9z M173.7,56.9c0.8,0,1.5-0.1,2.1-0.3c0.7-0.2,1.2-0.5,1.8-0.8
		c0.5-0.3,1-0.7,1.4-1.1c0.4-0.4,0.7-0.9,0.9-1.3v-5.5h-3.5c-2.4,0-4.3,0.4-5.5,1.3c-1.2,0.8-1.8,2-1.8,3.6c0,0.6,0.1,1.1,0.3,1.6
		c0.2,0.5,0.5,0.9,0.9,1.3c0.4,0.4,0.9,0.7,1.4,0.9C172.3,56.8,172.9,56.9,173.7,56.9z"/>
	<path fill="#231F20" d="M201.5,53.3l6.2-20.9h6.8l-10.1,29.2h-5.7l-10.2-29.2h6.8L201.5,53.3z"/>
	<path fill="#231F20" d="M229.2,62.2c-2.2,0-4.1-0.4-5.8-1.1c-1.7-0.7-3.2-1.7-4.4-3c-1.2-1.3-2.1-2.8-2.8-4.5c-0.6-1.7-1-3.6-1-5.6
		V47c0-2.3,0.3-4.4,1-6.2c0.7-1.9,1.6-3.4,2.8-4.7c1.2-1.3,2.6-2.3,4.2-3c1.6-0.7,3.3-1.1,5.2-1.1c2.1,0,4,0.4,5.5,1.1
		c1.6,0.7,2.9,1.7,3.9,3c1,1.3,1.8,2.8,2.3,4.6c0.5,1.8,0.8,3.7,0.8,5.8v2.8h-19.1c0.1,1.1,0.3,2.2,0.7,3.1c0.4,1,0.9,1.8,1.6,2.5
		c0.7,0.7,1.5,1.2,2.4,1.6c0.9,0.4,1.9,0.6,3.1,0.6c1.6,0,3-0.3,4.2-1c1.2-0.6,2.2-1.5,3.1-2.7l3.5,3.4c-0.5,0.7-1,1.4-1.7,2
		c-0.7,0.7-1.5,1.2-2.4,1.8c-0.9,0.5-2,0.9-3.1,1.2C232,62,230.7,62.2,229.2,62.2z M228.5,37.1c-1.8,0-3.2,0.6-4.4,1.9
		c-1.1,1.3-1.8,3-2.1,5.3h12.5v-0.5c-0.1-0.9-0.2-1.7-0.4-2.5c-0.2-0.8-0.6-1.5-1-2.1c-0.5-0.6-1.1-1.1-1.8-1.5
		C230.5,37.3,229.5,37.1,228.5,37.1z"/>
	<path fill="#71C5EE" d="M271,47.3c0,2.2-0.2,4.1-0.7,6c-0.5,1.8-1.2,3.4-2.2,4.7c-1,1.3-2.1,2.3-3.6,3.1c-1.4,0.7-3.1,1.1-4.9,1.1
		c-1.8,0-3.3-0.3-4.6-1c-1.3-0.6-2.4-1.6-3.3-2.7l-0.3,3.2h-5.9V20.2h6.6v15.1c0.9-1.1,2-1.9,3.3-2.5c1.2-0.6,2.7-0.9,4.4-0.9
		c1.9,0,3.5,0.4,5,1.1c1.4,0.7,2.6,1.8,3.6,3.1c1,1.3,1.7,2.9,2.2,4.7c0.5,1.8,0.7,3.8,0.7,6V47.3z M264.5,46.8
		c0-1.3-0.1-2.5-0.3-3.6c-0.2-1.2-0.6-2.2-1.1-3c-0.5-0.9-1.2-1.6-2-2.1c-0.8-0.5-1.9-0.8-3.1-0.8c-1.5,0-2.8,0.3-3.7,1
		c-1,0.7-1.7,1.6-2.2,2.7v12c0.5,1.1,1.3,2.1,2.3,2.8c1,0.7,2.2,1.1,3.8,1.1c1.2,0,2.2-0.2,3-0.7c0.8-0.5,1.5-1.2,2-2s0.9-1.9,1.1-3
		c0.2-1.1,0.3-2.4,0.3-3.7V46.8z"/>
	<path fill="#71C5EE" d="M292.7,61.6c-0.2-0.3-0.3-0.7-0.4-1.2c-0.1-0.5-0.2-1-0.3-1.5c-0.4,0.4-0.9,0.9-1.4,1.3
		c-0.5,0.4-1.1,0.7-1.8,1c-0.6,0.3-1.3,0.5-2.1,0.7c-0.7,0.2-1.5,0.3-2.4,0.3c-1.5,0-2.8-0.2-4-0.7c-1.2-0.4-2.3-1.1-3.1-1.8
		c-0.9-0.8-1.6-1.7-2-2.8c-0.5-1.1-0.7-2.2-0.7-3.5c0-1.6,0.3-2.9,0.9-4.2c0.6-1.2,1.5-2.2,2.6-3c1.1-0.8,2.5-1.4,4.2-1.8
		c1.6-0.4,3.5-0.6,5.6-0.6h4.1v-1.9c0-1.5-0.4-2.7-1.3-3.6c-0.8-0.9-2.1-1.4-3.9-1.4c-0.8,0-1.5,0.1-2.1,0.3
		c-0.6,0.2-1.2,0.5-1.6,0.8c-0.4,0.4-0.8,0.8-1,1.3c-0.2,0.5-0.4,1-0.4,1.6H275c0-1.2,0.3-2.3,0.8-3.3c0.6-1.1,1.4-2,2.4-2.9
		c1-0.8,2.3-1.5,3.8-2c1.5-0.5,3.1-0.8,5-0.8c1.6,0,3.1,0.2,4.5,0.6c1.4,0.4,2.6,1.1,3.6,1.9c1,0.8,1.8,1.9,2.3,3.1
		c0.6,1.2,0.8,2.7,0.8,4.4v12.9c0,2.6,0.4,4.7,1.1,6.3v0.5H292.7z M285.5,56.9c0.8,0,1.5-0.1,2.1-0.3c0.7-0.2,1.2-0.5,1.8-0.8
		c0.5-0.3,1-0.7,1.4-1.1c0.4-0.4,0.7-0.9,0.9-1.3v-5.5h-3.5c-2.4,0-4.3,0.4-5.5,1.3c-1.2,0.8-1.8,2-1.8,3.6c0,0.6,0.1,1.1,0.3,1.6
		c0.2,0.5,0.5,0.9,0.9,1.3c0.4,0.4,0.9,0.7,1.4,0.9C284.1,56.8,284.8,56.9,285.5,56.9z"/>
	<path fill="#71C5EE" d="M320.2,53.7c0-0.5-0.1-0.9-0.2-1.3c-0.2-0.4-0.5-0.8-0.9-1.1c-0.5-0.4-1.1-0.7-1.9-1
		c-0.8-0.3-1.9-0.6-3.2-0.9c-1.6-0.3-3-0.7-4.3-1.2c-1.3-0.5-2.4-1.1-3.3-1.8c-0.9-0.7-1.6-1.5-2.1-2.4c-0.5-0.9-0.8-2-0.8-3.2
		c0-1.2,0.3-2.3,0.8-3.4c0.5-1.1,1.3-2,2.3-2.8c1-0.8,2.2-1.5,3.6-1.9c1.4-0.5,3-0.7,4.7-0.7c1.8,0,3.4,0.2,4.9,0.7
		c1.4,0.5,2.7,1.1,3.7,2c1,0.8,1.8,1.8,2.3,3c0.5,1.1,0.8,2.4,0.8,3.7h-6.6c0-0.6-0.1-1.1-0.3-1.6c-0.2-0.5-0.5-1-1-1.4
		c-0.4-0.4-1-0.7-1.6-1c-0.6-0.2-1.4-0.4-2.2-0.4c-0.8,0-1.5,0.1-2.2,0.3c-0.6,0.2-1.1,0.5-1.5,0.8c-0.4,0.3-0.7,0.7-0.9,1.2
		c-0.2,0.4-0.3,0.9-0.3,1.4c0,0.5,0.1,0.9,0.3,1.3c0.2,0.4,0.5,0.7,1,1c0.5,0.3,1.1,0.6,1.8,0.8c0.8,0.3,1.7,0.5,2.9,0.8
		c1.7,0.4,3.2,0.8,4.5,1.3c1.3,0.5,2.5,1.1,3.4,1.8c0.9,0.7,1.6,1.5,2.1,2.5c0.5,1,0.7,2.1,0.7,3.4c0,1.3-0.3,2.5-0.8,3.6
		c-0.6,1.1-1.4,2-2.4,2.8c-1,0.8-2.3,1.4-3.7,1.8c-1.5,0.4-3.1,0.6-4.9,0.6c-2,0-3.8-0.3-5.3-0.8c-1.5-0.6-2.8-1.3-3.9-2.2
		c-1-0.9-1.8-2-2.4-3.1c-0.5-1.2-0.8-2.3-0.8-3.5h6.4c0.1,0.9,0.3,1.7,0.6,2.3c0.4,0.6,0.8,1.1,1.4,1.5c0.6,0.4,1.2,0.7,1.9,0.8
		c0.7,0.2,1.4,0.3,2.2,0.3c1.7,0,3-0.3,3.9-1C319.8,55.6,320.2,54.7,320.2,53.7z"/>
	<rect x="331.6" y="32.4" fill="#71C5EE" width="6.6" height="29.2"/>
	<path fill="#71C5EE" d="M360.4,53.7c0-0.5-0.1-0.9-0.2-1.3c-0.2-0.4-0.5-0.8-0.9-1.1c-0.5-0.4-1.1-0.7-1.9-1
		c-0.8-0.3-1.9-0.6-3.2-0.9c-1.6-0.3-3-0.7-4.3-1.2c-1.3-0.5-2.4-1.1-3.3-1.8c-0.9-0.7-1.6-1.5-2.1-2.4c-0.5-0.9-0.8-2-0.8-3.2
		c0-1.2,0.3-2.3,0.8-3.4c0.5-1.1,1.3-2,2.3-2.8c1-0.8,2.2-1.5,3.6-1.9c1.4-0.5,3-0.7,4.7-0.7c1.8,0,3.4,0.2,4.9,0.7
		c1.4,0.5,2.7,1.1,3.7,2c1,0.8,1.8,1.8,2.3,3c0.5,1.1,0.8,2.4,0.8,3.7H360c0-0.6-0.1-1.1-0.3-1.6c-0.2-0.5-0.5-1-1-1.4
		c-0.4-0.4-1-0.7-1.6-1c-0.6-0.2-1.4-0.4-2.2-0.4c-0.8,0-1.5,0.1-2.2,0.3c-0.6,0.2-1.1,0.5-1.5,0.8c-0.4,0.3-0.7,0.7-0.9,1.2
		c-0.2,0.4-0.3,0.9-0.3,1.4c0,0.5,0.1,0.9,0.3,1.3c0.2,0.4,0.5,0.7,1,1c0.5,0.3,1.1,0.6,1.8,0.8c0.8,0.3,1.7,0.5,2.9,0.8
		c1.7,0.4,3.2,0.8,4.5,1.3c1.3,0.5,2.5,1.1,3.4,1.8c0.9,0.7,1.6,1.5,2.1,2.5c0.5,1,0.7,2.1,0.7,3.4c0,1.3-0.3,2.5-0.8,3.6
		c-0.6,1.1-1.4,2-2.4,2.8c-1,0.8-2.3,1.4-3.7,1.8c-1.5,0.4-3.1,0.6-4.9,0.6c-2,0-3.8-0.3-5.3-0.8c-1.5-0.6-2.8-1.3-3.9-2.2
		c-1-0.9-1.8-2-2.4-3.1c-0.5-1.2-0.8-2.3-0.8-3.5h6.4c0.1,0.9,0.3,1.7,0.6,2.3c0.4,0.6,0.8,1.1,1.4,1.5c0.6,0.4,1.2,0.7,1.9,0.8
		c0.7,0.2,1.4,0.3,2.2,0.3c1.7,0,3-0.3,3.9-1C359.9,55.6,360.4,54.7,360.4,53.7z"/>
</g>
<g>
	<linearGradient id="SVGID_1_" gradientUnits="userSpaceOnUse" x1="32.281" y1="57.2581" x2="71.5914" y2="34.5622">
		<stop  offset="0" style="stop-color:#426AB2"/>
		<stop  offset="5.693460e-02" style="stop-color:#2D76BB"/>
		<stop  offset="0.1332" style="stop-color:#1981C5"/>
		<stop  offset="0.2199" style="stop-color:#0B8ACB"/>
		<stop  offset="0.3251" style="stop-color:#038FCF"/>
		<stop  offset="0.5" style="stop-color:#0090D0"/>
		<stop  offset="0.6749" style="stop-color:#038FCF"/>
		<stop  offset="0.7801" style="stop-color:#0B8ACB"/>
		<stop  offset="0.8668" style="stop-color:#1981C5"/>
		<stop  offset="0.9431" style="stop-color:#2D76BB"/>
		<stop  offset="1" style="stop-color:#426AB2"/>
	</linearGradient>
	<path fill="url(#SVGID_1_)" d="M62.1,18.2c-0.4-1.8-5.3,5.6-5.3,5.6L37.2,57.9l3.4,13.2c0.5,1.8,1.4,2.8,1.4,2.8l0.8-0.5l3.8-4.4
		L66.2,35L62.1,18.2z"/>
	<linearGradient id="SVGID_2_" gradientUnits="userSpaceOnUse" x1="76.1856" y1="47.4387" x2="128.2851" y2="17.3591">
		<stop  offset="0" style="stop-color:#426AB2"/>
		<stop  offset="2.208686e-02" style="stop-color:#3B6EB5"/>
		<stop  offset="0.108" style="stop-color:#257ABF"/>
		<stop  offset="0.2095" style="stop-color:#1484C7"/>
		<stop  offset="0.335" style="stop-color:#098BCC"/>
		<stop  offset="0.5111" style="stop-color:#028FCF"/>
		<stop  offset="1" style="stop-color:#0090D0"/>
	</linearGradient>
	<path fill="url(#SVGID_2_)" d="M118.5,2.3c-3.3-1.9-7.5-0.7-9.4,2.5L83.7,49.1l2.5,15.3c0.4,1.8,1,1.4,1.2,1.2l4.8-3.8L121,11.6
		C122.9,8.3,121.8,4.1,118.5,2.3z"/>
	<path fill="#4DBEED" d="M41.3,71.2c-0.7-0.8-1.3-2.6-1.6-3.4l-8.1-31.2l0,0C29,25.7,16.9,19.9,1,54.4c-0.9,1.9,15.6-24.4,18.7-10
		l6.2,24.7l0.6,2.3c2.2,8.1,13.5,9.5,20.2-2.5C46.8,69,43.2,73.4,41.3,71.2z"/>
	<path fill="#4DBEED" d="M87.8,62.4c-0.7-0.8-1.3-2.6-1.6-3.4l-6.5-26.6l-2.1-8.6l0,0l-0.2-0.8l-0.2-0.8l0,0L77,21.4
		c-2.1-8.1-13.5-9.5-20.2,2.4c0,0,3.6-4.4,5.5-2.2c0.7,0.8,1.3,2.6,1.6,3.4L73,62.7c2.2,8.1,13.5,9.5,20.2-2.5
		C93.2,60.2,89.6,64.6,87.8,62.4z"/>
</g>
</svg>
